{"title":"Rake.S04E07.720p.WEB-DL.AAC2.0.H264-BTN","uid":15173953,"size":1722068010,"categoryP":"video","categoryS":"hd___tv_shows","magnet":"?xt=urn:btih:dc9f5c5fd0cce79bdf5743cd5efff73d7fbec248&amp;dn=Rake.S04E07.720p.WEB-DL.AAC2.0.H264-BTN&amp;tr=udp%3A%2F%2Ftracker.leechers-paradise.org%3A6969&amp;tr=udp%3A%2F%2Fzer0day.ch%3A1337&amp;tr=udp%3A%2F%2Fopen.demonii.com%3A1337&amp;tr=udp%3A%2F%2Ftracker.coppersurfer.tk%3A6969&amp;tr=udp%3A%2F%2Fexodus.desync.com%3A6969","seeders":1,"leechers":0,"uploader":null,"files":2,"time":1467407948,"description":"Video\r\nID                                       : 2\r\nFormat                                   : AVC\r\nFormat/Info                              : Advanced Video Codec\r\nFormat profile                           :   \r\nFormat settings, CABAC                   : Yes\r\nFormat settings, ReFrames                : 2 frames\r\nCodec ID                                 : V_MPEG4/ISO/AVC\r\nDuration                                 : 56mn 26s\r\nBit rate mode                            : Variable\r\nBit rate                                 : 3 944 Kbps\r\nMaximum bit rate                         : 768 Kbps\r\nWidth                                    : 960 pixels\r\nHeight                                   : 720 pixels\r\nDisplay aspect ratio                     : 16:9\r\nFrame rate mode                          : Constant\r\nFrame rate                               : 25.000 fps\r\nColor space                              : YUV\r\nChroma subsampling                       : 4:2:0\r\nBit depth                                : 8 bits\r\nScan type                                : Progressive\r\nBits/(Pixel*Frame)                       : 0.228\r\nStream size                              : 1.55 GiB (97%)\r\nLanguage                                 : English\r\nDefault                                  : Yes\r\nForced                                   : No\r\n\r\nAudio\r\nID                                       : 1\r\nFormat                                   : AAC\r\nFormat/Info                              : Advanced Audio Codec\r\nFormat profile                           : LC\r\nCodec ID                                 : A_AAC\r\nDuration                                 : 56mn 26s\r\nBit rate                                 : 122 Kbps\r\nChannel(s)                               : 2 channels\r\nChannel positions                        : Front: L R\r\nSampling rate                            : 48.0 KHz\r\nFrame rate                               : 46.875 fps (1024 spf)\r\nCompression mode                         : Lossy\r\nStream size                              : 49.4 MiB (3%)\r\nLanguage                                 : English\r\nDefault                                  : Yes\r\nForced                                   : No","torrent":{"xt":"urn:btih:dc9f5c5fd0cce79bdf5743cd5efff73d7fbec248","amp;dn":"Rake.S04E07.720p.WEB-DL.AAC2.0.H264-BTN","amp;tr":["udp%3A%2F%2Ftracker.leechers-paradise.org%3A6969","udp%3A%2F%2Fzer0day.ch%3A1337","udp%3A%2F%2Fopen.demonii.com%3A1337","udp%3A%2F%2Ftracker.coppersurfer.tk%3A6969","udp%3A%2F%2Fexodus.desync.com%3A6969"],"infoHash":"dc9f5c5fd0cce79bdf5743cd5efff73d7fbec248","infoHashBuffer":{"type":"Buffer","data":[220,159,92,95,208,204,231,155,223,87,67,205,94,255,247,61,127,190,194,72]},"announce":[],"urlList":[]}}